<svg width="1024" height="1024" viewBox="0 0 1024 1024" fill="none" xmlns="http://www.w3.org/2000/svg">
<rect width="1024" height="1024" rx="100" fill="#F5F5F5"/>
<circle cx="23.931" cy="23.931" r="23.931" transform="matrix(0.31499 -0.949095 -0.949095 -0.31499 742.534 733.803)" fill="#121212"/>
<circle cx="23.931" cy="23.931" r="23.931" transform="matrix(0.31499 -0.949095 -0.949095 -0.31499 666.825 708.676)" fill="#121212"/>
<circle cx="23.931" cy="23.931" r="23.931" transform="matrix(0.31499 -0.949095 -0.949095 -0.31499 591.115 683.549)" fill="#121212"/>
<circle cx="23.931" cy="23.931" r="23.931" transform="matrix(-1 0 0 1 600.233 395.965)" fill="#121212"/>
<circle cx="23.931" cy="23.931" r="23.931" transform="matrix(-1 0 0 1 600.233 475.735)" fill="#121212"/>
<circle cx="23.931" cy="23.931" r="23.931" transform="matrix(-1 0 0 1 600.233 555.505)" fill="#121212"/>
<circle cx="23.931" cy="23.931" r="23.931" transform="matrix(-0.364673 0.931136 0.931136 0.364673 414.073 255.762)" fill="#121212"/>
<circle cx="23.931" cy="23.931" r="23.931" transform="matrix(-0.364673 0.931136 0.931136 0.364673 488.35 284.852)" fill="#121212"/>
<circle cx="23.931" cy="23.931" r="23.931" transform="matrix(-0.364673 0.931136 0.931136 0.364673 562.627 313.942)" fill="#121212"/>
<circle cx="23.931" cy="23.931" r="23.931" transform="matrix(-0.364673 0.931136 0.931136 0.364673 339.498 300.508)" fill="#121212"/>
<circle cx="23.931" cy="23.931" r="23.931" transform="matrix(-0.364673 0.931136 0.931136 0.364673 413.775 329.598)" fill="#121212"/>
<circle cx="23.931" cy="23.931" r="23.931" transform="matrix(-0.364673 0.931136 0.931136 0.364673 488.052 358.688)" fill="#121212"/>
<circle cx="23.931" cy="23.931" r="23.931" transform="matrix(1 0 0 -1 477.795 493.544)" fill="#121212"/>
<circle cx="23.931" cy="23.931" r="23.931" transform="matrix(-0.364673 0.931136 0.931136 0.364673 344.866 230.417)" fill="#121212"/>
<circle cx="23.931" cy="23.931" r="23.931" transform="matrix(1 0 0 -1 266 261.862)" fill="#121212"/>
<circle cx="23.931" cy="23.931" r="23.931" transform="matrix(0.31499 -0.949095 -0.949095 -0.31499 742.263 809.001)" fill="#121212"/>
<circle cx="23.931" cy="23.931" r="23.931" transform="matrix(0.31499 -0.949095 -0.949095 -0.31499 666.554 783.874)" fill="#121212"/>
<circle cx="23.931" cy="23.931" r="23.931" transform="matrix(0.31499 -0.949095 -0.949095 -0.31499 590.844 758.747)" fill="#121212"/>
</svg>
